<svg xmlns="http://www.w3.org/2000/svg" version="1.1" xmlns:xlink="http://www.w3.org/1999/xlink" xmlns:svgjs="http://svgjs.dev/svgjs" width="1500" height="272" viewBox="0 0 1500 272"><g transform="matrix(1,0,0,1,11.155691480158339,-0.7283717327758552)"><svg viewBox="0 0 396 72" data-background-color="#ffffff" preserveAspectRatio="xMidYMid meet" height="272" width="1500" xmlns="http://www.w3.org/2000/svg" xmlns:xlink="http://www.w3.org/1999/xlink"><g id="tight-bounds" transform="matrix(1,0,0,1,0.26366823565956565,0.1928042822053726)"><svg viewBox="0 0 395.52 71.61439143558927" height="71.61439143558927" width="395.52"><g><svg viewBox="0 0 550.8006853470401 99.73011701919945" height="71.61439143558927" width="395.52"><g><rect width="8.949019775395197" height="99.73011701919945" x="122.90491223291409" y="0" fill="#b81d33" opacity="1" stroke-width="0" stroke="transparent" fill-opacity="1" class="rect-yte-0" data-fill-palette-color="primary" rx="1%" id="yte-0" data-palette-color="#b81d33"></rect></g><g transform="matrix(1,0,0,1,155.28068534704016,0.24808486820695919)"><svg viewBox="0 0 395.52 99.23394728278554" height="99.23394728278554" width="395.52"><g id="textblocktransform"><svg viewBox="0 0 395.52 99.23394728278554" height="99.23394728278554" width="395.52" id="textblock"><g><svg viewBox="0 0 395.52 99.23394728278554" height="99.23394728278554" width="395.52"><g transform="matrix(1,0,0,1,0,0)"><svg width="395.52" viewBox="4.4 -37.9 153.63 38.55" height="99.23394728278554" data-palette-color="#b81d33"><path d="M4.4 0L4.4-34.1 25.3-34.1 25.3-30.25 8.6-30.25 8.6-19.35 24.1-19.35 24.1-15.6 8.6-15.6 8.6-3.85 25.8-3.85 25.8 0 4.4 0ZM31.8 0L31.8-37.45 35.8-37.9 35.8 0 31.8 0ZM60.85-3.95L61.6-0.6Q60.45-0.25 59.22 0 58 0.25 56.52 0.45 55.05 0.65 53.45 0.65L53.45 0.65Q50.95 0.65 48.8-0.05 46.65-0.75 45.05-2.3 43.45-3.85 42.52-6.33 41.6-8.8 41.6-12.4L41.6-12.4Q41.6-15.65 42.5-18.13 43.4-20.6 44.97-22.28 46.55-23.95 48.67-24.8 50.8-25.65 53.3-25.65L53.3-25.65Q55.75-25.65 57.55-24.7 59.35-23.75 60.52-22.13 61.7-20.5 62.27-18.32 62.85-16.15 62.85-13.75L62.85-13.75 62.1-11.55 45.95-11.55Q45.95-10 46.35-8.45 46.75-6.9 47.72-5.65 48.7-4.4 50.27-3.63 51.85-2.85 54.2-2.85L54.2-2.85Q55.7-2.85 56.95-3.03 58.2-3.2 59.12-3.43 60.05-3.65 60.85-3.95L60.85-3.95ZM46.1-14.75L58.7-14.75Q58.7-15.1 58.55-16.3 58.4-17.5 57.84-18.8 57.3-20.1 56.15-21.13 55-22.15 53.1-22.15L53.1-22.15Q51-22.15 49.65-21.28 48.3-20.4 47.5-19.2 46.7-18 46.4-16.75 46.1-15.5 46.1-14.75L46.1-14.75ZM84.69-24.85L83.89-21.5Q83.04-21.7 81.54-21.93 80.04-22.15 78.49-22.15L78.49-22.15Q76.24-22.15 74.82-21.25 73.39-20.35 72.59-18.93 71.79-17.5 71.49-15.78 71.19-14.05 71.19-12.4L71.19-12.4Q71.19-9.85 71.84-8.03 72.49-6.2 73.57-5.05 74.64-3.9 76.04-3.38 77.44-2.85 78.99-2.85L78.99-2.85Q80.04-2.85 81.02-2.98 81.99-3.1 82.82-3.28 83.64-3.45 84.39-3.7L84.39-3.7 85.19-0.35Q84.14-0.05 83.24 0.15 82.34 0.35 81.12 0.5 79.89 0.65 78.49 0.65L78.49 0.65Q75.74 0.65 73.59-0.05 71.44-0.75 69.97-2.3 68.49-3.85 67.72-6.35 66.94-8.85 66.94-12.45L66.94-12.45Q66.94-15.95 67.92-18.48 68.89-21 70.49-22.58 72.09-24.15 74.17-24.9 76.24-25.65 78.49-25.65L78.49-25.65Q79.69-25.65 80.82-25.53 81.94-25.4 82.79-25.25L82.79-25.25Q83.79-25.05 84.69-24.85L84.69-24.85ZM91.99-32.15L95.99-32.65 95.99-25.15 103.24-25.15 103.24-21.9 95.99-21.9 95.99-8.55Q95.99-6.9 96.07-5.8 96.14-4.7 96.39-4.05 96.64-3.4 97.09-3.13 97.54-2.85 98.24-2.85L98.24-2.85Q100.14-2.9 102.64-4.25L102.64-4.25 103.84-1.2Q102.19-0.1 100.77 0.28 99.34 0.65 97.94 0.65L97.94 0.65Q94.64 0.65 93.32-1.23 91.99-3.1 91.99-7.45L91.99-7.45 91.99-21.9 87.39-21.9 87.39-25.15 91.99-25.15 91.99-32.15ZM108.39 0L108.39-21.1Q108.39-22.25 108.14-24.7L108.14-24.7 111.84-25.2 112.24-21.55 112.29-21.55Q113.19-22.7 114.04-23.55 114.89-24.4 115.81-25.03 116.74-25.65 117.59-25.65L117.59-25.65Q118.74-25.7 120.79-25.4L120.79-25.4 119.89-21.55Q118.24-21.85 117.59-21.8L117.59-21.8Q116.74-21.8 115.79-21 114.84-20.2 114.14-19.3L114.14-19.3Q113.24-18.2 112.39-16.8L112.39-16.8 112.39 0 108.39 0ZM125.19 0L125.19-25.2 129.19-25.65 129.19 0 125.19 0ZM124.54-32.35L124.54-32.35Q124.54-33.5 125.31-34.27 126.09-35.05 127.24-35.05L127.24-35.05Q128.44-35.05 129.26-34.27 130.09-33.5 130.09-32.35L130.09-32.35Q130.09-31.2 129.26-30.43 128.44-29.65 127.24-29.65L127.24-29.65Q126.09-29.65 125.31-30.43 124.54-31.2 124.54-32.35ZM133.43 0L142.98-13.2 133.68-25.15 138.38-25.15 145.73-15.85 152.68-25.15 157.18-25.15 148.43-13.35 158.03 0 153.33 0 145.68-10.65 137.93 0 133.43 0Z" opacity="1" transform="matrix(1,0,0,1,0,0)" fill="#b81d33" class="wordmark-text-0" data-fill-palette-color="primary" id="text-0"></path></svg></g></svg></g></svg></g></svg></g><g transform="matrix(1,0,0,1,0,0.24808486820695919)"><svg viewBox="0 0 99.47815889418321 99.23394728278554" height="99.23394728278554" width="99.47815889418321"><g><svg xmlns="http://www.w3.org/2000/svg" xmlns:xlink="http://www.w3.org/1999/xlink" version="1.1" x="0" y="0" viewBox="14.550373119486348 15.9 60.94962688051365 60.800000000000004" enable-background="new 0 0 90 90" xml:space="preserve" height="99.23394728278554" width="99.47815889418321" class="icon-icon-0" data-fill-palette-color="accent" id="icon-0"><path fill="#fe6e63" d="M68.8 63.5C67.1 63.5 65.5 64.1 64.3 65.3L49.9 50.8C51 49.6 51.7 48 51.7 46.3 51.7 44.7 51.1 43.2 50.1 42L64.6 27.5C65.8 28.5 67.3 29.1 68.9 29.1 70.7 29.1 72.3 28.4 73.6 27.2 74.9 25.9 75.5 24.3 75.5 22.5S74.8 19.1 73.6 17.8C72.3 16.5 70.7 15.9 68.9 15.9S65.5 16.6 64.2 17.8C61.7 20.3 61.6 24.2 63.9 26.8L49.3 41.3C48.1 40.3 46.6 39.7 45 39.7S41.9 40.3 40.7 41.3L26.2 26.8C28.4 24.2 28.3 20.3 25.9 17.8 24.6 16.5 23 15.9 21.2 15.9S17.8 16.6 16.5 17.8C15.2 19.1 14.6 20.7 14.6 22.5S15.3 25.9 16.5 27.2C17.8 28.5 19.4 29.1 21.2 29.1 22.8 29.1 24.3 28.5 25.5 27.5L40 42C39 43.2 38.4 44.7 38.4 46.3S39 49.4 40 50.6L25.5 65.1C24.3 64.1 22.8 63.5 21.2 63.5 19.4 63.5 17.8 64.2 16.5 65.4A6.64 6.64 0 0 0 16.5 74.8C17.8 76.1 19.4 76.7 21.2 76.7S24.6 76 25.9 74.8C28.4 72.3 28.5 68.4 26.2 65.8L40.7 51.3C41.9 52.3 43.4 52.9 45 52.9S48 52.4 49.1 51.5L63.6 66C61.5 68.6 61.7 72.4 64.1 74.8 65.4 76.1 67 76.7 68.8 76.7S72.2 76 73.5 74.8C76.1 72.2 76.1 68 73.5 65.4 72.2 64.2 70.6 63.5 68.8 63.5M64.8 18.6C65.9 17.5 67.3 17 68.8 17S71.7 17.6 72.8 18.6C73.9 19.7 74.4 21.1 74.4 22.6S73.8 25.5 72.8 26.6C71.7 27.7 70.3 28.2 68.8 28.2S65.9 27.6 64.8 26.6C62.7 24.3 62.7 20.7 64.8 18.6M25.2 26.5C24.1 27.6 22.7 28.1 21.2 28.1S18.3 27.5 17.2 26.5C16.1 25.4 15.6 24 15.6 22.5S16.2 19.6 17.2 18.5C18.3 17.4 19.7 16.9 21.2 16.9S24.1 17.5 25.2 18.5C27.3 20.7 27.3 24.3 25.2 26.5M25.2 74.1C24.1 75.2 22.7 75.7 21.2 75.7S18.3 75.1 17.2 74.1C15 71.9 15 68.4 17.2 66.2 18.3 65.1 19.7 64.6 21.2 64.6S24.1 65.2 25.2 66.2C27.3 68.4 27.3 71.9 25.2 74.1M72.8 74.1C71.7 75.2 70.3 75.7 68.8 75.7S65.9 75.1 64.8 74.1C62.6 71.9 62.6 68.4 64.8 66.2 65.9 65.1 67.3 64.6 68.8 64.6S71.7 65.2 72.8 66.2C75 68.4 75 71.9 72.8 74.1" data-fill-palette-color="accent"></path></svg></g></svg></g></svg></g><defs></defs></svg><rect width="395.52" height="71.61439143558927" fill="none" stroke="none" visibility="hidden"></rect></g></svg></g>
</svg>